<svg id="svg" version="1.1" xmlns="http://www.w3.org/2000/svg" xmlns:xlink="http://www.w3.org/1999/xlink" width="400" height="438.35616438356163" viewBox="0, 0, 400,438.35616438356163"><g id="svgg"><path id="path0" d="M246.575 0.210 C 246.132 0.288,243.970 0.647,241.771 1.008 C 193.169 8.988,151.328 46.923,139.608 93.634 C 139.075 95.761,137.894 101.128,136.985 105.560 C 131.709 131.277,126.109 145.249,114.634 161.322 C 112.198 164.733,110.892 166.410,106.621 171.607 L 105.585 172.868 106.534 172.630 C 111.448 171.396,126.604 163.382,134.243 157.978 C 138.022 155.304,137.477 154.981,139.538 161.106 C 149.968 192.087,148.077 225.706,134.214 255.742 C 132.910 258.567,131.917 260.953,132.008 261.043 C 132.507 261.542,143.690 249.564,147.922 243.997 C 161.261 226.451,167.869 211.248,172.441 187.591 C 175.046 174.116,176.936 167.371,180.344 159.392 C 205.174 101.259,277.088 66.672,352.122 76.774 L 357.266 77.467 355.184 77.891 C 350.784 78.788,345.850 82.168,345.850 84.285 C 345.850 84.871,346.856 87.868,348.085 90.943 C 355.776 110.184,357.457 126.555,353.360 142.305 C 350.212 154.403,344.050 160.013,334.507 159.469 C 328.062 159.102,326.775 157.911,316.857 143.150 C 295.043 110.684,282.246 98.502,266.918 95.611 L 265.826 95.405 266.047 97.259 C 270.774 136.947,265.698 175.750,250.878 213.215 C 246.118 225.249,242.701 231.488,233.399 245.125 C 221.994 261.844,218.101 268.477,214.011 278.160 C 202.468 305.485,200.293 333.237,207.479 361.483 C 211.601 377.684,218.231 391.028,229.958 406.730 C 231.828 409.233,233.303 411.281,233.236 411.281 C 233.169 411.281,231.683 410.764,229.934 410.132 C 186.739 394.520,155.070 357.363,146.851 312.651 C 144.626 300.549,144.208 283.291,145.898 273.328 C 146.376 270.511,145.324 273.220,144.264 277.534 C 142.060 286.511,140.944 294.513,140.634 303.566 C 140.391 310.655,140.553 310.343,135.936 312.603 C 129.322 315.842,120.959 318.330,112.006 319.725 C 104.906 320.831,104.976 320.778,109.267 321.801 C 118.124 323.911,128.584 325.222,136.579 325.222 L 141.669 325.222 142.576 330.620 C 152.025 386.865,195.968 428.405,253.666 435.636 C 258.468 436.238,284.296 436.727,284.276 436.215 C 284.270 436.063,283.131 435.107,281.745 434.090 C 248.410 409.642,227.402 363.132,231.697 323.288 C 232.114 319.418,233.990 305.790,234.124 305.656 C 234.166 305.613,235.571 306.173,237.246 306.899 C 264.663 318.794,299.966 319.933,328.445 309.840 C 341.160 305.334,348.865 305.436,358.421 310.237 C 372.595 317.359,379.638 332.558,378.097 352.701 C 377.652 358.513,377.534 358.344,380.034 355.453 C 406.424 324.928,406.747 280.607,380.798 250.474 C 363.937 230.895,345.894 225.986,317.213 233.175 C 293.577 239.100,284.866 240.162,277.720 237.987 C 276.085 237.490,277.930 238.754,280.935 240.189 C 289.350 244.209,300.243 245.392,317.195 244.127 C 327.865 243.330,333.911 243.875,341.176 246.288 C 360.874 252.829,377.812 271.571,383.052 292.621 C 384.496 298.422,384.690 300.245,384.690 308.042 C 384.690 316.158,384.426 317.541,383.460 314.479 C 379.426 301.680,366.236 289.815,351.901 286.091 C 341.406 283.364,334.509 283.991,319.047 289.080 C 293.405 297.520,280.450 299.803,265.592 298.501 C 255.939 297.654,238.542 292.788,238.260 290.855 C 238.122 289.905,240.546 283.828,242.864 279.313 C 244.848 275.449,245.664 274.061,256.129 256.728 C 273.253 228.368,280.329 204.310,283.336 164.222 C 283.845 157.435,284.074 132.017,283.699 123.934 C 283.517 120.036,283.417 116.798,283.475 116.740 C 283.717 116.497,287.810 120.270,289.551 122.341 C 295.459 129.369,301.705 140.378,307.335 153.689 C 311.065 162.508,314.255 166.770,319.999 170.609 C 337.581 182.358,359.316 176.844,367.745 158.495 C 375.476 141.664,375.886 112.046,368.772 84.306 C 368.110 81.725,367.608 79.613,367.656 79.613 C 368.123 79.613,374.113 81.159,378.213 82.337 C 381.033 83.147,383.399 83.751,383.471 83.679 C 383.718 83.432,380.254 75.276,377.895 70.550 C 359.688 34.082,325.825 8.803,284.803 1.056 C 280.494 0.242,250.221 -0.428,246.575 0.210 M274.134 21.605 C 303.264 24.057,329.500 36.536,350.286 57.825 C 354.406 62.045,361.139 69.911,360.865 70.185 C 360.814 70.236,358.756 69.494,356.292 68.535 C 323.864 55.911,285.143 55.298,250.054 66.854 C 197.161 84.274,166.046 122.339,160.186 176.793 C 159.652 181.757,159.030 186.978,158.804 188.396 L 158.393 190.975 158.165 188.660 C 158.039 187.387,157.219 182.964,156.341 178.830 C 152.737 161.854,152.003 155.529,152.237 143.433 C 152.710 118.972,159.242 103.252,174.654 89.479 C 179.181 85.434,179.363 85.034,175.616 87.371 C 162.242 95.711,151.484 107.732,146.213 120.226 C 145.165 122.710,147.506 109.899,149.077 104.550 C 163.594 55.137,220.906 17.125,274.134 21.605 " stroke="none" fill="#fcfcfc" fill-rule="evenodd"></path><path id="path1" d="M0.322 218.695 L 0.322 425.463 13.376 425.463 L 26.430 425.463 26.430 218.695 L 26.430 11.926 13.376 11.926 L 0.322 11.926 0.322 218.695 " stroke="none" fill="#fc8c1c" fill-rule="evenodd"></path><path id="path2" d="" stroke="none" fill="#fc100c4" fill-rule="evenodd"></path><path id="path3" d="" stroke="none" fill="#fc100c4" fill-rule="evenodd"></path><path id="path4" d="" stroke="none" fill="#fc100c4" fill-rule="evenodd"></path><path id="path5" d="" stroke="none" fill="#fc100c4" fill-rule="evenodd"></path><path id="path6" d="" stroke="none" fill="#fc100c4" fill-rule="evenodd"></path><path id="path7" d="" stroke="none" fill="#fc100c4" fill-rule="evenodd"></path><path id="path8" d="" stroke="none" fill="#fc100c4" fill-rule="evenodd"></path></g></svg>